<?xml version="1.0" standalone="no"?>
<!DOCTYPE svg PUBLIC "-//W3C//DTD SVG 20010904//EN"
 "http://www.w3.org/TR/2001/REC-SVG-20010904/DTD/svg10.dtd">
<svg version="1.0" xmlns="http://www.w3.org/2000/svg"
 width="1314.000000pt" height="340.000000pt" viewBox="0 0 1314.000000 340.000000"
 preserveAspectRatio="xMidYMid meet">

<g transform="translate(0.000000,340.000000) scale(0.100000,-0.100000)"
fill="#000000" stroke="none">
<path d="M300 2600 l0 -370 50 0 50 0 0 320 0 320 385 0 385 0 0 50 0 50 -435
0 -435 0 0 -370z"/>
<path d="M6908 2376 l-158 -91 0 -532 0 -533 498 0 497 0 120 120 120 120
-458 0 -457 0 -2 504 -3 504 -157 -92z"/>
<path d="M5362 2162 l-122 -117 2 -501 3 -501 158 89 157 89 0 155 0 154 320
0 320 0 0 -155 0 -155 165 0 165 0 0 408 0 407 -123 123 -122 122 -400 -1
-400 0 -123 -117z m838 -257 l0 -135 -320 0 -320 0 0 135 0 135 320 0 320 0 0
-135z"/>
<path d="M967 1958 l-66 -91 36 -51 c20 -28 50 -68 66 -88 l29 -38 222 0 223
0 23 -25 23 -25 -23 -25 -23 -25 -220 0 -220 0 -68 -65 -67 -65 342 0 341 0
66 88 67 88 -65 87 -65 87 -225 0 c-221 0 -225 0 -244 23 -10 12 -18 27 -18
32 0 6 8 20 18 33 19 22 23 22 243 22 l224 0 64 65 64 65 -340 0 -341 0 -66
-92z"/>
<path d="M1820 1755 l0 -295 278 0 278 0 64 65 64 65 -252 0 -252 0 0 50 0 50
158 0 158 0 59 60 59 60 -217 0 -217 0 0 55 0 55 198 0 198 0 64 65 64 65
-352 0 -352 0 0 -295z"/>
<path d="M2632 1973 c23 -43 95 -175 159 -293 l117 -215 84 -3 83 -3 158 290
c86 160 157 293 157 296 0 3 -40 5 -88 5 l-88 0 -109 -200 c-60 -109 -112
-197 -115 -194 -3 3 -52 92 -110 197 l-106 192 -92 3 -93 3 43 -78z"/>
<path d="M3490 1755 l0 -295 278 0 278 0 64 65 64 65 -252 0 -252 0 0 50 0 50
158 0 158 0 59 60 59 60 -217 0 -217 0 0 55 0 55 198 0 198 0 64 65 64 65
-352 0 -352 0 0 -295z"/>
<path d="M4280 1699 l0 -350 43 26 c23 14 63 38 89 53 l48 27 0 103 0 102 168
0 168 0 27 -28 c24 -25 27 -36 27 -100 l0 -72 90 0 90 0 0 82 0 82 -51 52 -51
52 51 67 c30 40 48 72 43 79 -4 7 -34 49 -66 94 l-60 82 -308 0 -308 0 0 -351z
m543 187 l26 -33 -22 -31 -22 -32 -172 0 -173 0 0 65 0 65 169 0 169 0 25 -34z"/>
<path d="M8164 1958 c-32 -45 -62 -87 -66 -94 -5 -7 13 -39 43 -79 l51 -67
-51 -52 -52 -52 3 -136 3 -136 88 52 87 51 0 74 c0 68 3 78 27 103 l27 28 168
0 168 0 0 -100 0 -100 90 0 90 0 0 295 0 295 -308 0 -308 0 -60 -82z m496
-113 l0 -65 -172 0 -173 0 -22 32 -22 31 26 33 25 34 169 0 169 0 0 -65z"/>
<path d="M8960 1975 l64 -65 203 0 203 0 0 -55 0 -55 -222 0 -222 0 59 -60 59
-60 163 0 163 0 0 -50 0 -50 -257 0 -258 -1 70 -64 70 -64 273 -1 272 0 0 295
0 295 -352 0 -352 0 64 -65z"/>
<path d="M9831 1748 l158 -293 84 -3 84 -3 157 290 c86 159 156 292 156 295 0
3 -39 6 -87 6 l-88 0 -109 -200 c-59 -110 -110 -200 -111 -200 -2 0 -52 90
-112 200 l-108 200 -92 0 -91 0 159 -292z"/>
<path d="M10600 1975 l64 -65 203 0 203 0 0 -55 0 -55 -222 0 -222 0 59 -60
59 -60 163 0 163 0 0 -50 0 -50 -257 0 -258 -1 70 -64 70 -64 273 -1 272 0 0
295 0 295 -352 0 -352 0 64 -65z"/>
<path d="M11380 1975 l64 -65 226 0 226 0 21 -28 20 -28 -21 -27 -22 -27 -225
0 -225 0 -63 -85 c-34 -47 -61 -89 -59 -93 1 -5 30 -45 63 -90 l60 -81 345 -1
344 0 -64 65 -64 65 -225 0 c-216 0 -226 1 -248 21 l-22 22 20 28 20 29 227 0
227 1 31 42 c16 23 45 63 63 89 l33 46 -67 91 -67 91 -341 0 -341 0 64 -65z"/>
<path d="M12660 1030 l0 -320 -385 0 -385 0 0 -50 0 -50 435 0 435 0 0 370 0
370 -50 0 -50 0 0 -320z"/>
<path d="M6404 815 l6 -205 -488 0 c-425 0 -490 -2 -510 -16 -23 -16 -41 -51
-86 -169 -15 -38 -33 -83 -41 -100 -7 -16 -16 -42 -20 -56 l-6 -26 332 -6
c557 -11 2399 -9 2399 4 0 9 -46 135 -75 204 -7 17 -18 46 -24 65 -6 19 -20
50 -31 68 l-20 32 -490 0 -490 0 0 128 c0 71 -3 163 -6 205 l-7 77 -225 0
-225 0 7 -205z"/>
</g>
</svg>
